# xmcd CD database file
#
# Track frame offsets:
#	150
#	15705
#	41225
#	60235
#	79345
#	93602
#	106107
#	135650
#	163377
#	187582
#	204987
#	222042
#
# Disc length: 3266 seconds
#
# Revision: 0
# Processed by: cddbd v1.4PL0 Copyright (c) Steve Scherf et al.
# Submitted via: CDex 1.50Beta7
#
DISCID=9b0cc00c
DTITLE=Jazz Singers - Jazz Singers
DYEAR=1900
DGENRE=Jazz
TTITLE0=Mack The Knife/Louis Armstrong
TTITLE1=Baby It's Cold Outside duet with VELMA MIDDLETON/Louis Armstrong
TTITLE2=La Vie En Rose/Louis Armstrong
TTITLE3=Mr. Paganini/Ella Fitzgerald
TTITLE4=Just One Of Those Things/Ella Fitzgerald
TTITLE5=My Heart Belongs To Daddy/Ella Fitzgerald
TTITLE6=Round Midnight/Sarah Vaughan
TTITLE7=Alfie/Sarah Vaughan
TTITLE8=Lover Man/Sarah Vaughan
TTITLE9=Imagination/Joe Williams
TTITLE10=I Fall In Love Too Easily/Carmen McRAE
TTITLE11=Am I Blue/Freddy Cole
EXTD=
EXTT0=
EXTT1=
EXTT2=
EXTT3=
EXTT4=
EXTT5=
EXTT6=
EXTT7=
EXTT8=
EXTT9=
EXTT10=
EXTT11=
PLAYORDER=
